<mxfile host="app.diagrams.net" modified="2024-01-29T04:13:08.453Z" agent="Mozilla/5.0 (Windows NT 10.0; Win64; x64; rv:122.0) Gecko/20100101 Firefox/122.0" etag="Gw4fL2EmeUHiDn3NwaA9" version="23.0.2" type="device">
  <diagram name="PÃ¡gina-1" id="40VW-iZry-zgK4zTb7AF">
    <mxGraphModel dx="2021" dy="1885" grid="1" gridSize="10" guides="1" tooltips="1" connect="1" arrows="1" fold="1" page="1" pageScale="1" pageWidth="827" pageHeight="1169" math="0" shadow="0">
      <root>
        <mxCell id="0" />
        <mxCell id="1" parent="0" />
        <mxCell id="w9JJ6rMWMCZdvsnwuQ7H-161" value="" style="ellipse;whiteSpace=wrap;html=1;rotation=-66;fillColor=#fad7ac;strokeColor=#b46504;strokeWidth=3;" vertex="1" parent="1">
          <mxGeometry x="1241" y="690" width="71.97" height="49.82" as="geometry" />
        </mxCell>
        <mxCell id="w9JJ6rMWMCZdvsnwuQ7H-157" value="" style="ellipse;whiteSpace=wrap;html=1;rotation=-60;strokeWidth=3;fillColor=#fad7ac;strokeColor=#b46504;" vertex="1" parent="1">
          <mxGeometry x="620" y="683" width="70.59" height="43.29" as="geometry" />
        </mxCell>
        <mxCell id="w9JJ6rMWMCZdvsnwuQ7H-1" value="" style="rounded=0;whiteSpace=wrap;html=1;strokeWidth=4;fillColor=#cce5ff;strokeColor=#36393d;" vertex="1" parent="1">
          <mxGeometry width="870" height="560" as="geometry" />
        </mxCell>
        <mxCell id="w9JJ6rMWMCZdvsnwuQ7H-17" value="" style="rounded=1;whiteSpace=wrap;html=1;strokeWidth=3;fillColor=#b1ddf0;strokeColor=#10739e;" vertex="1" parent="1">
          <mxGeometry x="100" y="240" width="730" height="240" as="geometry" />
        </mxCell>
        <mxCell id="w9JJ6rMWMCZdvsnwuQ7H-6" value="" style="rounded=1;whiteSpace=wrap;html=1;strokeWidth=3;fillColor=#dae8fc;strokeColor=#6c8ebf;" vertex="1" parent="1">
          <mxGeometry x="130" y="281.5" width="310" height="75" as="geometry" />
        </mxCell>
        <mxCell id="w9JJ6rMWMCZdvsnwuQ7H-2" value="" style="sketch=0;pointerEvents=1;shadow=0;dashed=0;html=1;strokeColor=none;fillColor=#434445;aspect=fixed;labelPosition=center;verticalLabelPosition=bottom;verticalAlign=top;align=center;outlineConnect=0;shape=mxgraph.vvd.ethernet_port;rotation=-180;" vertex="1" parent="1">
          <mxGeometry x="150" y="295" width="50" height="50" as="geometry" />
        </mxCell>
        <mxCell id="w9JJ6rMWMCZdvsnwuQ7H-3" value="" style="sketch=0;pointerEvents=1;shadow=0;dashed=0;html=1;strokeColor=none;fillColor=#434445;aspect=fixed;labelPosition=center;verticalLabelPosition=bottom;verticalAlign=top;align=center;outlineConnect=0;shape=mxgraph.vvd.ethernet_port;rotation=-180;" vertex="1" parent="1">
          <mxGeometry x="220" y="295" width="50" height="50" as="geometry" />
        </mxCell>
        <mxCell id="w9JJ6rMWMCZdvsnwuQ7H-4" value="" style="sketch=0;pointerEvents=1;shadow=0;dashed=0;html=1;strokeColor=none;fillColor=#434445;aspect=fixed;labelPosition=center;verticalLabelPosition=bottom;verticalAlign=top;align=center;outlineConnect=0;shape=mxgraph.vvd.ethernet_port;rotation=-180;" vertex="1" parent="1">
          <mxGeometry x="290" y="295" width="50" height="50" as="geometry" />
        </mxCell>
        <mxCell id="w9JJ6rMWMCZdvsnwuQ7H-5" value="" style="sketch=0;pointerEvents=1;shadow=0;dashed=0;html=1;strokeColor=none;fillColor=#434445;aspect=fixed;labelPosition=center;verticalLabelPosition=bottom;verticalAlign=top;align=center;outlineConnect=0;shape=mxgraph.vvd.ethernet_port;rotation=-180;" vertex="1" parent="1">
          <mxGeometry x="363.5" y="294" width="50" height="50" as="geometry" />
        </mxCell>
        <mxCell id="w9JJ6rMWMCZdvsnwuQ7H-7" value="" style="rounded=1;whiteSpace=wrap;html=1;strokeWidth=3;fillColor=#dae8fc;strokeColor=#6c8ebf;" vertex="1" parent="1">
          <mxGeometry x="490" y="282.5" width="310" height="75" as="geometry" />
        </mxCell>
        <mxCell id="w9JJ6rMWMCZdvsnwuQ7H-8" value="" style="sketch=0;pointerEvents=1;shadow=0;dashed=0;html=1;strokeColor=none;fillColor=#434445;aspect=fixed;labelPosition=center;verticalLabelPosition=bottom;verticalAlign=top;align=center;outlineConnect=0;shape=mxgraph.vvd.ethernet_port;rotation=-180;" vertex="1" parent="1">
          <mxGeometry x="510" y="296" width="50" height="50" as="geometry" />
        </mxCell>
        <mxCell id="w9JJ6rMWMCZdvsnwuQ7H-9" value="" style="sketch=0;pointerEvents=1;shadow=0;dashed=0;html=1;strokeColor=none;fillColor=#434445;aspect=fixed;labelPosition=center;verticalLabelPosition=bottom;verticalAlign=top;align=center;outlineConnect=0;shape=mxgraph.vvd.ethernet_port;rotation=-180;" vertex="1" parent="1">
          <mxGeometry x="580" y="296" width="50" height="50" as="geometry" />
        </mxCell>
        <mxCell id="w9JJ6rMWMCZdvsnwuQ7H-10" value="" style="sketch=0;pointerEvents=1;shadow=0;dashed=0;html=1;strokeColor=none;fillColor=#434445;aspect=fixed;labelPosition=center;verticalLabelPosition=bottom;verticalAlign=top;align=center;outlineConnect=0;shape=mxgraph.vvd.ethernet_port;rotation=-180;" vertex="1" parent="1">
          <mxGeometry x="650" y="296" width="50" height="50" as="geometry" />
        </mxCell>
        <mxCell id="w9JJ6rMWMCZdvsnwuQ7H-11" value="" style="sketch=0;pointerEvents=1;shadow=0;dashed=0;html=1;strokeColor=none;fillColor=#434445;aspect=fixed;labelPosition=center;verticalLabelPosition=bottom;verticalAlign=top;align=center;outlineConnect=0;shape=mxgraph.vvd.ethernet_port;rotation=-180;" vertex="1" parent="1">
          <mxGeometry x="723.5" y="295" width="50" height="50" as="geometry" />
        </mxCell>
        <mxCell id="w9JJ6rMWMCZdvsnwuQ7H-15" value="" style="sketch=0;pointerEvents=1;shadow=0;dashed=0;html=1;strokeColor=none;fillColor=#434445;aspect=fixed;labelPosition=center;verticalLabelPosition=bottom;verticalAlign=top;align=center;outlineConnect=0;shape=mxgraph.vvd.ethernet_port;" vertex="1" parent="1">
          <mxGeometry x="535" y="420" width="50" height="50" as="geometry" />
        </mxCell>
        <mxCell id="w9JJ6rMWMCZdvsnwuQ7H-16" value="" style="sketch=0;pointerEvents=1;shadow=0;dashed=0;html=1;strokeColor=none;fillColor=#434445;aspect=fixed;labelPosition=center;verticalLabelPosition=bottom;verticalAlign=top;align=center;outlineConnect=0;shape=mxgraph.vvd.ethernet_port;" vertex="1" parent="1">
          <mxGeometry x="460" y="420" width="50" height="50" as="geometry" />
        </mxCell>
        <mxCell id="w9JJ6rMWMCZdvsnwuQ7H-18" value="VLAN10" style="text;html=1;strokeColor=none;fillColor=none;align=center;verticalAlign=middle;whiteSpace=wrap;rounded=0;fontSize=16;fontStyle=1" vertex="1" parent="1">
          <mxGeometry x="217.39999999999998" y="380" width="96.5" height="30" as="geometry" />
        </mxCell>
        <mxCell id="w9JJ6rMWMCZdvsnwuQ7H-27" value="" style="image;sketch=0;aspect=fixed;html=1;points=[];align=center;fontSize=12;image=img/lib/mscae/Virtual_Machine.svg;" vertex="1" parent="1">
          <mxGeometry x="150" y="70" width="50" height="46" as="geometry" />
        </mxCell>
        <mxCell id="w9JJ6rMWMCZdvsnwuQ7H-28" value="" style="image;sketch=0;aspect=fixed;html=1;points=[];align=center;fontSize=12;image=img/lib/mscae/Virtual_Machine.svg;" vertex="1" parent="1">
          <mxGeometry x="220" y="70" width="50" height="46" as="geometry" />
        </mxCell>
        <mxCell id="w9JJ6rMWMCZdvsnwuQ7H-29" value="" style="image;sketch=0;aspect=fixed;html=1;points=[];align=center;fontSize=12;image=img/lib/mscae/Virtual_Machine.svg;" vertex="1" parent="1">
          <mxGeometry x="290" y="70" width="50" height="46" as="geometry" />
        </mxCell>
        <mxCell id="w9JJ6rMWMCZdvsnwuQ7H-30" value="" style="image;sketch=0;aspect=fixed;html=1;points=[];align=center;fontSize=12;image=img/lib/mscae/Virtual_Machine.svg;" vertex="1" parent="1">
          <mxGeometry x="363.5" y="70" width="50" height="46" as="geometry" />
        </mxCell>
        <mxCell id="w9JJ6rMWMCZdvsnwuQ7H-31" value="" style="image;sketch=0;aspect=fixed;html=1;points=[];align=center;fontSize=12;image=img/lib/mscae/Virtual_Machine.svg;" vertex="1" parent="1">
          <mxGeometry x="510" y="70" width="50" height="46" as="geometry" />
        </mxCell>
        <mxCell id="w9JJ6rMWMCZdvsnwuQ7H-32" value="" style="image;sketch=0;aspect=fixed;html=1;points=[];align=center;fontSize=12;image=img/lib/mscae/Virtual_Machine.svg;" vertex="1" parent="1">
          <mxGeometry x="580" y="70" width="50" height="46" as="geometry" />
        </mxCell>
        <mxCell id="w9JJ6rMWMCZdvsnwuQ7H-33" value="" style="image;sketch=0;aspect=fixed;html=1;points=[];align=center;fontSize=12;image=img/lib/mscae/Virtual_Machine.svg;" vertex="1" parent="1">
          <mxGeometry x="650" y="70" width="50" height="46" as="geometry" />
        </mxCell>
        <mxCell id="w9JJ6rMWMCZdvsnwuQ7H-34" value="" style="image;sketch=0;aspect=fixed;html=1;points=[];align=center;fontSize=12;image=img/lib/mscae/Virtual_Machine.svg;" vertex="1" parent="1">
          <mxGeometry x="723.5" y="70" width="50" height="46" as="geometry" />
        </mxCell>
        <mxCell id="w9JJ6rMWMCZdvsnwuQ7H-40" value="UPLINKS" style="text;html=1;strokeColor=none;fillColor=none;align=center;verticalAlign=middle;whiteSpace=wrap;rounded=0;fontSize=16;fontStyle=1" vertex="1" parent="1">
          <mxGeometry x="472.35" y="390" width="96.5" height="30" as="geometry" />
        </mxCell>
        <mxCell id="w9JJ6rMWMCZdvsnwuQ7H-41" value="" style="endArrow=none;html=1;rounded=0;strokeWidth=4;" edge="1" parent="1">
          <mxGeometry width="50" height="50" relative="1" as="geometry">
            <mxPoint x="537.75" y="240" as="sourcePoint" />
            <mxPoint x="537.75" y="173" as="targetPoint" />
          </mxGeometry>
        </mxCell>
        <mxCell id="w9JJ6rMWMCZdvsnwuQ7H-42" value="" style="endArrow=none;html=1;rounded=0;strokeWidth=4;" edge="1" parent="1">
          <mxGeometry width="50" height="50" relative="1" as="geometry">
            <mxPoint x="174.5" y="240" as="sourcePoint" />
            <mxPoint x="174.5" y="173" as="targetPoint" />
          </mxGeometry>
        </mxCell>
        <mxCell id="w9JJ6rMWMCZdvsnwuQ7H-43" value="" style="endArrow=none;html=1;rounded=0;strokeWidth=4;" edge="1" parent="1">
          <mxGeometry width="50" height="50" relative="1" as="geometry">
            <mxPoint x="244.5" y="240" as="sourcePoint" />
            <mxPoint x="244.5" y="173" as="targetPoint" />
          </mxGeometry>
        </mxCell>
        <mxCell id="w9JJ6rMWMCZdvsnwuQ7H-44" value="" style="endArrow=none;html=1;rounded=0;strokeWidth=4;" edge="1" parent="1">
          <mxGeometry width="50" height="50" relative="1" as="geometry">
            <mxPoint x="314.5" y="240" as="sourcePoint" />
            <mxPoint x="314.5" y="173" as="targetPoint" />
          </mxGeometry>
        </mxCell>
        <mxCell id="w9JJ6rMWMCZdvsnwuQ7H-45" value="" style="endArrow=none;html=1;rounded=0;strokeWidth=4;" edge="1" parent="1">
          <mxGeometry width="50" height="50" relative="1" as="geometry">
            <mxPoint x="388" y="240" as="sourcePoint" />
            <mxPoint x="388" y="173" as="targetPoint" />
          </mxGeometry>
        </mxCell>
        <mxCell id="w9JJ6rMWMCZdvsnwuQ7H-46" value="" style="endArrow=none;html=1;rounded=0;strokeWidth=4;" edge="1" parent="1">
          <mxGeometry width="50" height="50" relative="1" as="geometry">
            <mxPoint x="604.5" y="240" as="sourcePoint" />
            <mxPoint x="604.5" y="173" as="targetPoint" />
          </mxGeometry>
        </mxCell>
        <mxCell id="w9JJ6rMWMCZdvsnwuQ7H-47" value="" style="endArrow=none;html=1;rounded=0;strokeWidth=4;" edge="1" parent="1">
          <mxGeometry width="50" height="50" relative="1" as="geometry">
            <mxPoint x="674.5" y="240" as="sourcePoint" />
            <mxPoint x="674.5" y="173" as="targetPoint" />
          </mxGeometry>
        </mxCell>
        <mxCell id="w9JJ6rMWMCZdvsnwuQ7H-48" value="" style="endArrow=none;html=1;rounded=0;strokeWidth=4;" edge="1" parent="1">
          <mxGeometry width="50" height="50" relative="1" as="geometry">
            <mxPoint x="748" y="240" as="sourcePoint" />
            <mxPoint x="748" y="173" as="targetPoint" />
          </mxGeometry>
        </mxCell>
        <mxCell id="w9JJ6rMWMCZdvsnwuQ7H-52" value="" style="pointerEvents=1;shadow=0;dashed=0;html=1;labelPosition=center;verticalLabelPosition=bottom;verticalAlign=top;align=center;outlineConnect=0;shape=mxgraph.veeam.2d.vnic;fillColor=#e6d0de;gradientColor=#d5739d;strokeColor=#996185;" vertex="1" parent="1">
          <mxGeometry x="144.79999999999995" y="116" width="55.2" height="52.8" as="geometry" />
        </mxCell>
        <mxCell id="w9JJ6rMWMCZdvsnwuQ7H-54" value="" style="pointerEvents=1;shadow=0;dashed=0;html=1;labelPosition=center;verticalLabelPosition=bottom;verticalAlign=top;align=center;outlineConnect=0;shape=mxgraph.veeam.2d.vnic;fillColor=#e6d0de;gradientColor=#d5739d;strokeColor=#996185;" vertex="1" parent="1">
          <mxGeometry x="217.39999999999995" y="116" width="55.2" height="52.8" as="geometry" />
        </mxCell>
        <mxCell id="w9JJ6rMWMCZdvsnwuQ7H-55" value="" style="pointerEvents=1;shadow=0;dashed=0;html=1;labelPosition=center;verticalLabelPosition=bottom;verticalAlign=top;align=center;outlineConnect=0;shape=mxgraph.veeam.2d.vnic;fillColor=#e6d0de;gradientColor=#d5739d;strokeColor=#996185;" vertex="1" parent="1">
          <mxGeometry x="284.79999999999995" y="116" width="55.2" height="52.8" as="geometry" />
        </mxCell>
        <mxCell id="w9JJ6rMWMCZdvsnwuQ7H-56" value="" style="pointerEvents=1;shadow=0;dashed=0;html=1;labelPosition=center;verticalLabelPosition=bottom;verticalAlign=top;align=center;outlineConnect=0;shape=mxgraph.veeam.2d.vnic;fillColor=#e6d0de;gradientColor=#d5739d;strokeColor=#996185;" vertex="1" parent="1">
          <mxGeometry x="360.9" y="116" width="55.2" height="52.8" as="geometry" />
        </mxCell>
        <mxCell id="w9JJ6rMWMCZdvsnwuQ7H-57" value="" style="pointerEvents=1;shadow=0;dashed=0;html=1;labelPosition=center;verticalLabelPosition=bottom;verticalAlign=top;align=center;outlineConnect=0;shape=mxgraph.veeam.2d.vnic;fillColor=#e6d0de;gradientColor=#d5739d;strokeColor=#996185;" vertex="1" parent="1">
          <mxGeometry x="507.4" y="116" width="55.2" height="52.8" as="geometry" />
        </mxCell>
        <mxCell id="w9JJ6rMWMCZdvsnwuQ7H-58" value="" style="pointerEvents=1;shadow=0;dashed=0;html=1;labelPosition=center;verticalLabelPosition=bottom;verticalAlign=top;align=center;outlineConnect=0;shape=mxgraph.veeam.2d.vnic;fillColor=#e6d0de;gradientColor=#d5739d;strokeColor=#996185;" vertex="1" parent="1">
          <mxGeometry x="577.4" y="116" width="55.2" height="52.8" as="geometry" />
        </mxCell>
        <mxCell id="w9JJ6rMWMCZdvsnwuQ7H-59" value="" style="pointerEvents=1;shadow=0;dashed=0;html=1;labelPosition=center;verticalLabelPosition=bottom;verticalAlign=top;align=center;outlineConnect=0;shape=mxgraph.veeam.2d.vnic;fillColor=#e6d0de;gradientColor=#d5739d;strokeColor=#996185;" vertex="1" parent="1">
          <mxGeometry x="647.4" y="116" width="55.2" height="52.8" as="geometry" />
        </mxCell>
        <mxCell id="w9JJ6rMWMCZdvsnwuQ7H-60" value="" style="pointerEvents=1;shadow=0;dashed=0;html=1;labelPosition=center;verticalLabelPosition=bottom;verticalAlign=top;align=center;outlineConnect=0;shape=mxgraph.veeam.2d.vnic;fillColor=#e6d0de;gradientColor=#d5739d;strokeColor=#996185;" vertex="1" parent="1">
          <mxGeometry x="720.9" y="116" width="55.2" height="52.8" as="geometry" />
        </mxCell>
        <mxCell id="w9JJ6rMWMCZdvsnwuQ7H-64" value="VMS" style="text;html=1;strokeColor=none;fillColor=none;align=center;verticalAlign=middle;whiteSpace=wrap;rounded=0;fontSize=16;fontStyle=1" vertex="1" parent="1">
          <mxGeometry x="60" y="70" width="60" height="30" as="geometry" />
        </mxCell>
        <mxCell id="w9JJ6rMWMCZdvsnwuQ7H-65" value="vNICS" style="text;html=1;strokeColor=none;fillColor=none;align=center;verticalAlign=middle;whiteSpace=wrap;rounded=0;fontSize=16;fontStyle=1" vertex="1" parent="1">
          <mxGeometry x="60" y="127.4" width="60" height="30" as="geometry" />
        </mxCell>
        <mxCell id="w9JJ6rMWMCZdvsnwuQ7H-71" value="" style="sketch=0;pointerEvents=1;shadow=0;dashed=0;html=1;strokeColor=none;fillColor=#505050;labelPosition=center;verticalLabelPosition=bottom;verticalAlign=top;outlineConnect=0;align=center;shape=mxgraph.office.devices.nic;" vertex="1" parent="1">
          <mxGeometry x="456.5" y="640" width="57" height="38" as="geometry" />
        </mxCell>
        <mxCell id="w9JJ6rMWMCZdvsnwuQ7H-72" value="" style="sketch=0;pointerEvents=1;shadow=0;dashed=0;html=1;strokeColor=none;fillColor=#505050;labelPosition=center;verticalLabelPosition=bottom;verticalAlign=top;outlineConnect=0;align=center;shape=mxgraph.office.devices.nic;" vertex="1" parent="1">
          <mxGeometry x="531.5" y="640" width="57" height="38" as="geometry" />
        </mxCell>
        <mxCell id="w9JJ6rMWMCZdvsnwuQ7H-73" value="" style="endArrow=none;html=1;rounded=0;strokeWidth=4;fillColor=#b0e3e6;strokeColor=#0e8088;" edge="1" parent="1" source="w9JJ6rMWMCZdvsnwuQ7H-71">
          <mxGeometry width="50" height="50" relative="1" as="geometry">
            <mxPoint x="484.5" y="630" as="sourcePoint" />
            <mxPoint x="484.5" y="470" as="targetPoint" />
          </mxGeometry>
        </mxCell>
        <mxCell id="w9JJ6rMWMCZdvsnwuQ7H-75" value="" style="endArrow=none;html=1;rounded=0;strokeWidth=4;fillColor=#b0e3e6;strokeColor=#0e8088;" edge="1" parent="1">
          <mxGeometry width="50" height="50" relative="1" as="geometry">
            <mxPoint x="559" y="640" as="sourcePoint" />
            <mxPoint x="558.5" y="470" as="targetPoint" />
          </mxGeometry>
        </mxCell>
        <mxCell id="w9JJ6rMWMCZdvsnwuQ7H-83" value="" style="image;aspect=fixed;perimeter=ellipsePerimeter;html=1;align=center;fontSize=12;verticalAlign=top;fontColor=#364149;shadow=0;dashed=0;image=img/lib/cumulus/switch_bare_metal_empty.svg;" vertex="1" parent="1">
          <mxGeometry x="800" y="760" width="224" height="56" as="geometry" />
        </mxCell>
        <mxCell id="w9JJ6rMWMCZdvsnwuQ7H-85" value="PNics" style="text;html=1;strokeColor=none;fillColor=none;align=center;verticalAlign=middle;whiteSpace=wrap;rounded=0;fontSize=16;fontStyle=1" vertex="1" parent="1">
          <mxGeometry x="319.6" y="644" width="96.5" height="30" as="geometry" />
        </mxCell>
        <mxCell id="w9JJ6rMWMCZdvsnwuQ7H-88" value="WAN" style="text;html=1;strokeColor=none;fillColor=none;align=center;verticalAlign=middle;whiteSpace=wrap;rounded=0;fontSize=16;fontStyle=1" vertex="1" parent="1">
          <mxGeometry x="800.3" y="1229" width="199.4" height="30" as="geometry" />
        </mxCell>
        <mxCell id="w9JJ6rMWMCZdvsnwuQ7H-90" value="" style="html=1;verticalLabelPosition=bottom;align=center;labelBackgroundColor=#ffffff;verticalAlign=top;strokeWidth=3;strokeColor=#0080F0;shadow=0;dashed=0;shape=mxgraph.ios7.icons.cloud;" vertex="1" parent="1">
          <mxGeometry x="760" y="1069" width="280" height="140" as="geometry" />
        </mxCell>
        <mxCell id="w9JJ6rMWMCZdvsnwuQ7H-91" value="" style="endArrow=none;html=1;rounded=0;strokeWidth=4;fillColor=#b0e3e6;strokeColor=#0e8088;" edge="1" parent="1">
          <mxGeometry width="50" height="50" relative="1" as="geometry">
            <mxPoint x="911.4" y="1077" as="sourcePoint" />
            <mxPoint x="910.9" y="995" as="targetPoint" />
          </mxGeometry>
        </mxCell>
        <mxCell id="w9JJ6rMWMCZdvsnwuQ7H-92" value="TRUNK 802.1 Q" style="text;html=1;strokeColor=none;fillColor=none;align=center;verticalAlign=middle;whiteSpace=wrap;rounded=0;fontSize=16;fontStyle=1;fontColor=#FF7B08;" vertex="1" parent="1">
          <mxGeometry x="613.5" y="640" width="123" height="30" as="geometry" />
        </mxCell>
        <mxCell id="w9JJ6rMWMCZdvsnwuQ7H-98" value="VLAN20" style="text;html=1;strokeColor=none;fillColor=none;align=center;verticalAlign=middle;whiteSpace=wrap;rounded=0;fontSize=16;fontStyle=1" vertex="1" parent="1">
          <mxGeometry x="660.5999999999999" y="380" width="96.5" height="30" as="geometry" />
        </mxCell>
        <mxCell id="w9JJ6rMWMCZdvsnwuQ7H-99" value="" style="rounded=0;whiteSpace=wrap;html=1;strokeWidth=4;fillColor=#cce5ff;strokeColor=#36393d;" vertex="1" parent="1">
          <mxGeometry x="966" width="870" height="560" as="geometry" />
        </mxCell>
        <mxCell id="w9JJ6rMWMCZdvsnwuQ7H-100" value="" style="rounded=1;whiteSpace=wrap;html=1;strokeWidth=3;fillColor=#b1ddf0;strokeColor=#10739e;" vertex="1" parent="1">
          <mxGeometry x="1066" y="240" width="730" height="240" as="geometry" />
        </mxCell>
        <mxCell id="w9JJ6rMWMCZdvsnwuQ7H-101" value="" style="rounded=1;whiteSpace=wrap;html=1;strokeWidth=3;fillColor=#dae8fc;strokeColor=#6c8ebf;" vertex="1" parent="1">
          <mxGeometry x="1096" y="281.5" width="310" height="75" as="geometry" />
        </mxCell>
        <mxCell id="w9JJ6rMWMCZdvsnwuQ7H-102" value="" style="sketch=0;pointerEvents=1;shadow=0;dashed=0;html=1;strokeColor=none;fillColor=#434445;aspect=fixed;labelPosition=center;verticalLabelPosition=bottom;verticalAlign=top;align=center;outlineConnect=0;shape=mxgraph.vvd.ethernet_port;rotation=-180;" vertex="1" parent="1">
          <mxGeometry x="1116" y="295" width="50" height="50" as="geometry" />
        </mxCell>
        <mxCell id="w9JJ6rMWMCZdvsnwuQ7H-103" value="" style="sketch=0;pointerEvents=1;shadow=0;dashed=0;html=1;strokeColor=none;fillColor=#434445;aspect=fixed;labelPosition=center;verticalLabelPosition=bottom;verticalAlign=top;align=center;outlineConnect=0;shape=mxgraph.vvd.ethernet_port;rotation=-180;" vertex="1" parent="1">
          <mxGeometry x="1186" y="295" width="50" height="50" as="geometry" />
        </mxCell>
        <mxCell id="w9JJ6rMWMCZdvsnwuQ7H-104" value="" style="sketch=0;pointerEvents=1;shadow=0;dashed=0;html=1;strokeColor=none;fillColor=#434445;aspect=fixed;labelPosition=center;verticalLabelPosition=bottom;verticalAlign=top;align=center;outlineConnect=0;shape=mxgraph.vvd.ethernet_port;rotation=-180;" vertex="1" parent="1">
          <mxGeometry x="1256" y="295" width="50" height="50" as="geometry" />
        </mxCell>
        <mxCell id="w9JJ6rMWMCZdvsnwuQ7H-105" value="" style="sketch=0;pointerEvents=1;shadow=0;dashed=0;html=1;strokeColor=none;fillColor=#434445;aspect=fixed;labelPosition=center;verticalLabelPosition=bottom;verticalAlign=top;align=center;outlineConnect=0;shape=mxgraph.vvd.ethernet_port;rotation=-180;" vertex="1" parent="1">
          <mxGeometry x="1329.5" y="294" width="50" height="50" as="geometry" />
        </mxCell>
        <mxCell id="w9JJ6rMWMCZdvsnwuQ7H-106" value="" style="rounded=1;whiteSpace=wrap;html=1;strokeWidth=3;fillColor=#dae8fc;strokeColor=#6c8ebf;" vertex="1" parent="1">
          <mxGeometry x="1456" y="282.5" width="310" height="75" as="geometry" />
        </mxCell>
        <mxCell id="w9JJ6rMWMCZdvsnwuQ7H-107" value="" style="sketch=0;pointerEvents=1;shadow=0;dashed=0;html=1;strokeColor=none;fillColor=#434445;aspect=fixed;labelPosition=center;verticalLabelPosition=bottom;verticalAlign=top;align=center;outlineConnect=0;shape=mxgraph.vvd.ethernet_port;rotation=-180;" vertex="1" parent="1">
          <mxGeometry x="1476" y="296" width="50" height="50" as="geometry" />
        </mxCell>
        <mxCell id="w9JJ6rMWMCZdvsnwuQ7H-108" value="" style="sketch=0;pointerEvents=1;shadow=0;dashed=0;html=1;strokeColor=none;fillColor=#434445;aspect=fixed;labelPosition=center;verticalLabelPosition=bottom;verticalAlign=top;align=center;outlineConnect=0;shape=mxgraph.vvd.ethernet_port;rotation=-180;" vertex="1" parent="1">
          <mxGeometry x="1546" y="296" width="50" height="50" as="geometry" />
        </mxCell>
        <mxCell id="w9JJ6rMWMCZdvsnwuQ7H-109" value="" style="sketch=0;pointerEvents=1;shadow=0;dashed=0;html=1;strokeColor=none;fillColor=#434445;aspect=fixed;labelPosition=center;verticalLabelPosition=bottom;verticalAlign=top;align=center;outlineConnect=0;shape=mxgraph.vvd.ethernet_port;rotation=-180;" vertex="1" parent="1">
          <mxGeometry x="1616" y="296" width="50" height="50" as="geometry" />
        </mxCell>
        <mxCell id="w9JJ6rMWMCZdvsnwuQ7H-110" value="" style="sketch=0;pointerEvents=1;shadow=0;dashed=0;html=1;strokeColor=none;fillColor=#434445;aspect=fixed;labelPosition=center;verticalLabelPosition=bottom;verticalAlign=top;align=center;outlineConnect=0;shape=mxgraph.vvd.ethernet_port;rotation=-180;" vertex="1" parent="1">
          <mxGeometry x="1689.5" y="295" width="50" height="50" as="geometry" />
        </mxCell>
        <mxCell id="w9JJ6rMWMCZdvsnwuQ7H-111" value="" style="sketch=0;pointerEvents=1;shadow=0;dashed=0;html=1;strokeColor=none;fillColor=#434445;aspect=fixed;labelPosition=center;verticalLabelPosition=bottom;verticalAlign=top;align=center;outlineConnect=0;shape=mxgraph.vvd.ethernet_port;" vertex="1" parent="1">
          <mxGeometry x="1501" y="420" width="50" height="50" as="geometry" />
        </mxCell>
        <mxCell id="w9JJ6rMWMCZdvsnwuQ7H-112" value="" style="sketch=0;pointerEvents=1;shadow=0;dashed=0;html=1;strokeColor=none;fillColor=#434445;aspect=fixed;labelPosition=center;verticalLabelPosition=bottom;verticalAlign=top;align=center;outlineConnect=0;shape=mxgraph.vvd.ethernet_port;" vertex="1" parent="1">
          <mxGeometry x="1426" y="420" width="50" height="50" as="geometry" />
        </mxCell>
        <mxCell id="w9JJ6rMWMCZdvsnwuQ7H-113" value="VLAN10" style="text;html=1;strokeColor=none;fillColor=none;align=center;verticalAlign=middle;whiteSpace=wrap;rounded=0;fontSize=16;fontStyle=1" vertex="1" parent="1">
          <mxGeometry x="1183.4" y="380" width="96.5" height="30" as="geometry" />
        </mxCell>
        <mxCell id="w9JJ6rMWMCZdvsnwuQ7H-114" value="" style="image;sketch=0;aspect=fixed;html=1;points=[];align=center;fontSize=12;image=img/lib/mscae/Virtual_Machine.svg;" vertex="1" parent="1">
          <mxGeometry x="1116" y="70" width="50" height="46" as="geometry" />
        </mxCell>
        <mxCell id="w9JJ6rMWMCZdvsnwuQ7H-115" value="" style="image;sketch=0;aspect=fixed;html=1;points=[];align=center;fontSize=12;image=img/lib/mscae/Virtual_Machine.svg;" vertex="1" parent="1">
          <mxGeometry x="1186" y="70" width="50" height="46" as="geometry" />
        </mxCell>
        <mxCell id="w9JJ6rMWMCZdvsnwuQ7H-116" value="" style="image;sketch=0;aspect=fixed;html=1;points=[];align=center;fontSize=12;image=img/lib/mscae/Virtual_Machine.svg;" vertex="1" parent="1">
          <mxGeometry x="1256" y="70" width="50" height="46" as="geometry" />
        </mxCell>
        <mxCell id="w9JJ6rMWMCZdvsnwuQ7H-117" value="" style="image;sketch=0;aspect=fixed;html=1;points=[];align=center;fontSize=12;image=img/lib/mscae/Virtual_Machine.svg;" vertex="1" parent="1">
          <mxGeometry x="1329.5" y="70" width="50" height="46" as="geometry" />
        </mxCell>
        <mxCell id="w9JJ6rMWMCZdvsnwuQ7H-118" value="" style="image;sketch=0;aspect=fixed;html=1;points=[];align=center;fontSize=12;image=img/lib/mscae/Virtual_Machine.svg;" vertex="1" parent="1">
          <mxGeometry x="1476" y="70" width="50" height="46" as="geometry" />
        </mxCell>
        <mxCell id="w9JJ6rMWMCZdvsnwuQ7H-119" value="" style="image;sketch=0;aspect=fixed;html=1;points=[];align=center;fontSize=12;image=img/lib/mscae/Virtual_Machine.svg;" vertex="1" parent="1">
          <mxGeometry x="1546" y="70" width="50" height="46" as="geometry" />
        </mxCell>
        <mxCell id="w9JJ6rMWMCZdvsnwuQ7H-120" value="" style="image;sketch=0;aspect=fixed;html=1;points=[];align=center;fontSize=12;image=img/lib/mscae/Virtual_Machine.svg;" vertex="1" parent="1">
          <mxGeometry x="1616" y="70" width="50" height="46" as="geometry" />
        </mxCell>
        <mxCell id="w9JJ6rMWMCZdvsnwuQ7H-121" value="" style="image;sketch=0;aspect=fixed;html=1;points=[];align=center;fontSize=12;image=img/lib/mscae/Virtual_Machine.svg;" vertex="1" parent="1">
          <mxGeometry x="1689.5" y="70" width="50" height="46" as="geometry" />
        </mxCell>
        <mxCell id="w9JJ6rMWMCZdvsnwuQ7H-122" value="UPLINKS" style="text;html=1;strokeColor=none;fillColor=none;align=center;verticalAlign=middle;whiteSpace=wrap;rounded=0;fontSize=16;fontStyle=1" vertex="1" parent="1">
          <mxGeometry x="1438.35" y="390" width="96.5" height="30" as="geometry" />
        </mxCell>
        <mxCell id="w9JJ6rMWMCZdvsnwuQ7H-123" value="" style="endArrow=none;html=1;rounded=0;strokeWidth=4;" edge="1" parent="1">
          <mxGeometry width="50" height="50" relative="1" as="geometry">
            <mxPoint x="1503.75" y="240" as="sourcePoint" />
            <mxPoint x="1503.75" y="173" as="targetPoint" />
          </mxGeometry>
        </mxCell>
        <mxCell id="w9JJ6rMWMCZdvsnwuQ7H-124" value="" style="endArrow=none;html=1;rounded=0;strokeWidth=4;" edge="1" parent="1">
          <mxGeometry width="50" height="50" relative="1" as="geometry">
            <mxPoint x="1140.5" y="240" as="sourcePoint" />
            <mxPoint x="1140.5" y="173" as="targetPoint" />
          </mxGeometry>
        </mxCell>
        <mxCell id="w9JJ6rMWMCZdvsnwuQ7H-125" value="" style="endArrow=none;html=1;rounded=0;strokeWidth=4;" edge="1" parent="1">
          <mxGeometry width="50" height="50" relative="1" as="geometry">
            <mxPoint x="1210.5" y="240" as="sourcePoint" />
            <mxPoint x="1210.5" y="173" as="targetPoint" />
          </mxGeometry>
        </mxCell>
        <mxCell id="w9JJ6rMWMCZdvsnwuQ7H-126" value="" style="endArrow=none;html=1;rounded=0;strokeWidth=4;" edge="1" parent="1">
          <mxGeometry width="50" height="50" relative="1" as="geometry">
            <mxPoint x="1280.5" y="240" as="sourcePoint" />
            <mxPoint x="1280.5" y="173" as="targetPoint" />
          </mxGeometry>
        </mxCell>
        <mxCell id="w9JJ6rMWMCZdvsnwuQ7H-127" value="" style="endArrow=none;html=1;rounded=0;strokeWidth=4;" edge="1" parent="1">
          <mxGeometry width="50" height="50" relative="1" as="geometry">
            <mxPoint x="1354" y="240" as="sourcePoint" />
            <mxPoint x="1354" y="173" as="targetPoint" />
          </mxGeometry>
        </mxCell>
        <mxCell id="w9JJ6rMWMCZdvsnwuQ7H-128" value="" style="endArrow=none;html=1;rounded=0;strokeWidth=4;" edge="1" parent="1">
          <mxGeometry width="50" height="50" relative="1" as="geometry">
            <mxPoint x="1570.5" y="240" as="sourcePoint" />
            <mxPoint x="1570.5" y="173" as="targetPoint" />
          </mxGeometry>
        </mxCell>
        <mxCell id="w9JJ6rMWMCZdvsnwuQ7H-129" value="" style="endArrow=none;html=1;rounded=0;strokeWidth=4;" edge="1" parent="1">
          <mxGeometry width="50" height="50" relative="1" as="geometry">
            <mxPoint x="1640.5" y="240" as="sourcePoint" />
            <mxPoint x="1640.5" y="173" as="targetPoint" />
          </mxGeometry>
        </mxCell>
        <mxCell id="w9JJ6rMWMCZdvsnwuQ7H-130" value="" style="endArrow=none;html=1;rounded=0;strokeWidth=4;" edge="1" parent="1">
          <mxGeometry width="50" height="50" relative="1" as="geometry">
            <mxPoint x="1714" y="240" as="sourcePoint" />
            <mxPoint x="1714" y="173" as="targetPoint" />
          </mxGeometry>
        </mxCell>
        <mxCell id="w9JJ6rMWMCZdvsnwuQ7H-131" value="" style="pointerEvents=1;shadow=0;dashed=0;html=1;labelPosition=center;verticalLabelPosition=bottom;verticalAlign=top;align=center;outlineConnect=0;shape=mxgraph.veeam.2d.vnic;fillColor=#e6d0de;gradientColor=#d5739d;strokeColor=#996185;" vertex="1" parent="1">
          <mxGeometry x="1110.8" y="116" width="55.2" height="52.8" as="geometry" />
        </mxCell>
        <mxCell id="w9JJ6rMWMCZdvsnwuQ7H-132" value="" style="pointerEvents=1;shadow=0;dashed=0;html=1;labelPosition=center;verticalLabelPosition=bottom;verticalAlign=top;align=center;outlineConnect=0;shape=mxgraph.veeam.2d.vnic;fillColor=#e6d0de;gradientColor=#d5739d;strokeColor=#996185;" vertex="1" parent="1">
          <mxGeometry x="1183.4" y="116" width="55.2" height="52.8" as="geometry" />
        </mxCell>
        <mxCell id="w9JJ6rMWMCZdvsnwuQ7H-133" value="" style="pointerEvents=1;shadow=0;dashed=0;html=1;labelPosition=center;verticalLabelPosition=bottom;verticalAlign=top;align=center;outlineConnect=0;shape=mxgraph.veeam.2d.vnic;fillColor=#e6d0de;gradientColor=#d5739d;strokeColor=#996185;" vertex="1" parent="1">
          <mxGeometry x="1250.8" y="116" width="55.2" height="52.8" as="geometry" />
        </mxCell>
        <mxCell id="w9JJ6rMWMCZdvsnwuQ7H-134" value="" style="pointerEvents=1;shadow=0;dashed=0;html=1;labelPosition=center;verticalLabelPosition=bottom;verticalAlign=top;align=center;outlineConnect=0;shape=mxgraph.veeam.2d.vnic;fillColor=#e6d0de;gradientColor=#d5739d;strokeColor=#996185;" vertex="1" parent="1">
          <mxGeometry x="1326.9" y="116" width="55.2" height="52.8" as="geometry" />
        </mxCell>
        <mxCell id="w9JJ6rMWMCZdvsnwuQ7H-135" value="" style="pointerEvents=1;shadow=0;dashed=0;html=1;labelPosition=center;verticalLabelPosition=bottom;verticalAlign=top;align=center;outlineConnect=0;shape=mxgraph.veeam.2d.vnic;fillColor=#e6d0de;gradientColor=#d5739d;strokeColor=#996185;" vertex="1" parent="1">
          <mxGeometry x="1473.4" y="116" width="55.2" height="52.8" as="geometry" />
        </mxCell>
        <mxCell id="w9JJ6rMWMCZdvsnwuQ7H-136" value="" style="pointerEvents=1;shadow=0;dashed=0;html=1;labelPosition=center;verticalLabelPosition=bottom;verticalAlign=top;align=center;outlineConnect=0;shape=mxgraph.veeam.2d.vnic;fillColor=#e6d0de;gradientColor=#d5739d;strokeColor=#996185;" vertex="1" parent="1">
          <mxGeometry x="1543.4" y="116" width="55.2" height="52.8" as="geometry" />
        </mxCell>
        <mxCell id="w9JJ6rMWMCZdvsnwuQ7H-137" value="" style="pointerEvents=1;shadow=0;dashed=0;html=1;labelPosition=center;verticalLabelPosition=bottom;verticalAlign=top;align=center;outlineConnect=0;shape=mxgraph.veeam.2d.vnic;fillColor=#e6d0de;gradientColor=#d5739d;strokeColor=#996185;" vertex="1" parent="1">
          <mxGeometry x="1613.4" y="116" width="55.2" height="52.8" as="geometry" />
        </mxCell>
        <mxCell id="w9JJ6rMWMCZdvsnwuQ7H-138" value="" style="pointerEvents=1;shadow=0;dashed=0;html=1;labelPosition=center;verticalLabelPosition=bottom;verticalAlign=top;align=center;outlineConnect=0;shape=mxgraph.veeam.2d.vnic;fillColor=#e6d0de;gradientColor=#d5739d;strokeColor=#996185;" vertex="1" parent="1">
          <mxGeometry x="1686.9" y="116" width="55.2" height="52.8" as="geometry" />
        </mxCell>
        <mxCell id="w9JJ6rMWMCZdvsnwuQ7H-139" value="VMS" style="text;html=1;strokeColor=none;fillColor=none;align=center;verticalAlign=middle;whiteSpace=wrap;rounded=0;fontSize=16;fontStyle=1" vertex="1" parent="1">
          <mxGeometry x="1026" y="70" width="60" height="30" as="geometry" />
        </mxCell>
        <mxCell id="w9JJ6rMWMCZdvsnwuQ7H-140" value="vNICS" style="text;html=1;strokeColor=none;fillColor=none;align=center;verticalAlign=middle;whiteSpace=wrap;rounded=0;fontSize=16;fontStyle=1" vertex="1" parent="1">
          <mxGeometry x="1026" y="127.4" width="60" height="30" as="geometry" />
        </mxCell>
        <mxCell id="w9JJ6rMWMCZdvsnwuQ7H-141" value="" style="endArrow=none;html=1;rounded=0;strokeWidth=4;fillColor=#b0e3e6;strokeColor=#0e8088;" edge="1" parent="1">
          <mxGeometry width="50" height="50" relative="1" as="geometry">
            <mxPoint x="1451" y="640" as="sourcePoint" />
            <mxPoint x="1450.5" y="470" as="targetPoint" />
          </mxGeometry>
        </mxCell>
        <mxCell id="w9JJ6rMWMCZdvsnwuQ7H-142" value="" style="endArrow=none;html=1;rounded=0;strokeWidth=4;fillColor=#b0e3e6;strokeColor=#0e8088;" edge="1" parent="1">
          <mxGeometry width="50" height="50" relative="1" as="geometry">
            <mxPoint x="1525" y="640" as="sourcePoint" />
            <mxPoint x="1524.5" y="470" as="targetPoint" />
          </mxGeometry>
        </mxCell>
        <mxCell id="w9JJ6rMWMCZdvsnwuQ7H-143" value="VLAN20" style="text;html=1;strokeColor=none;fillColor=none;align=center;verticalAlign=middle;whiteSpace=wrap;rounded=0;fontSize=16;fontStyle=1" vertex="1" parent="1">
          <mxGeometry x="1626.6" y="380" width="96.5" height="30" as="geometry" />
        </mxCell>
        <mxCell id="w9JJ6rMWMCZdvsnwuQ7H-144" value="" style="sketch=0;pointerEvents=1;shadow=0;dashed=0;html=1;strokeColor=none;fillColor=#505050;labelPosition=center;verticalLabelPosition=bottom;verticalAlign=top;outlineConnect=0;align=center;shape=mxgraph.office.devices.nic;" vertex="1" parent="1">
          <mxGeometry x="1416.5" y="639" width="57" height="38" as="geometry" />
        </mxCell>
        <mxCell id="w9JJ6rMWMCZdvsnwuQ7H-145" value="" style="sketch=0;pointerEvents=1;shadow=0;dashed=0;html=1;strokeColor=none;fillColor=#505050;labelPosition=center;verticalLabelPosition=bottom;verticalAlign=top;outlineConnect=0;align=center;shape=mxgraph.office.devices.nic;" vertex="1" parent="1">
          <mxGeometry x="1491.5" y="639" width="57" height="38" as="geometry" />
        </mxCell>
        <mxCell id="w9JJ6rMWMCZdvsnwuQ7H-146" value="PNics" style="text;html=1;strokeColor=none;fillColor=none;align=center;verticalAlign=middle;whiteSpace=wrap;rounded=0;fontSize=16;fontStyle=1" vertex="1" parent="1">
          <mxGeometry x="1580" y="644" width="96.5" height="30" as="geometry" />
        </mxCell>
        <mxCell id="w9JJ6rMWMCZdvsnwuQ7H-147" value="" style="fontColor=#0066CC;verticalAlign=top;verticalLabelPosition=bottom;labelPosition=center;align=center;html=1;outlineConnect=0;fillColor=#CCCCCC;strokeColor=#6881B3;gradientColor=none;gradientDirection=north;strokeWidth=2;shape=mxgraph.networks.router;" vertex="1" parent="1">
          <mxGeometry x="813" y="925" width="198" height="70" as="geometry" />
        </mxCell>
        <mxCell id="w9JJ6rMWMCZdvsnwuQ7H-148" value="" style="endArrow=none;html=1;rounded=0;strokeWidth=4;fillColor=#b0e3e6;strokeColor=#0e8088;" edge="1" parent="1">
          <mxGeometry width="50" height="50" relative="1" as="geometry">
            <mxPoint x="881.5" y="920" as="sourcePoint" />
            <mxPoint x="881.5" y="816" as="targetPoint" />
          </mxGeometry>
        </mxCell>
        <mxCell id="w9JJ6rMWMCZdvsnwuQ7H-149" value="" style="endArrow=none;html=1;rounded=0;strokeWidth=4;fillColor=#b0e3e6;strokeColor=#0e8088;" edge="1" parent="1">
          <mxGeometry width="50" height="50" relative="1" as="geometry">
            <mxPoint x="901.5" y="920" as="sourcePoint" />
            <mxPoint x="901.5" y="816" as="targetPoint" />
          </mxGeometry>
        </mxCell>
        <mxCell id="w9JJ6rMWMCZdvsnwuQ7H-150" value="" style="endArrow=none;html=1;rounded=0;strokeWidth=4;fillColor=#b0e3e6;strokeColor=#0e8088;" edge="1" parent="1">
          <mxGeometry width="50" height="50" relative="1" as="geometry">
            <mxPoint x="921" y="920" as="sourcePoint" />
            <mxPoint x="921" y="816" as="targetPoint" />
          </mxGeometry>
        </mxCell>
        <mxCell id="w9JJ6rMWMCZdvsnwuQ7H-151" value="" style="endArrow=none;html=1;rounded=0;strokeWidth=4;fillColor=#b0e3e6;strokeColor=#0e8088;fontStyle=1" edge="1" parent="1">
          <mxGeometry width="50" height="50" relative="1" as="geometry">
            <mxPoint x="941.5" y="920" as="sourcePoint" />
            <mxPoint x="941.5" y="816" as="targetPoint" />
          </mxGeometry>
        </mxCell>
        <mxCell id="w9JJ6rMWMCZdvsnwuQ7H-152" value="" style="endArrow=none;html=1;rounded=0;strokeWidth=4;fillColor=#b0e3e6;strokeColor=#0e8088;exitX=0.188;exitY=-0.071;exitDx=0;exitDy=0;exitPerimeter=0;" edge="1" parent="1" source="w9JJ6rMWMCZdvsnwuQ7H-83">
          <mxGeometry width="50" height="50" relative="1" as="geometry">
            <mxPoint x="490" y="782" as="sourcePoint" />
            <mxPoint x="490" y="678" as="targetPoint" />
          </mxGeometry>
        </mxCell>
        <mxCell id="w9JJ6rMWMCZdvsnwuQ7H-153" value="" style="endArrow=none;html=1;rounded=0;strokeWidth=4;fillColor=#b0e3e6;strokeColor=#0e8088;exitX=0.438;exitY=-0.089;exitDx=0;exitDy=0;exitPerimeter=0;" edge="1" parent="1" source="w9JJ6rMWMCZdvsnwuQ7H-83">
          <mxGeometry width="50" height="50" relative="1" as="geometry">
            <mxPoint x="932" y="755" as="sourcePoint" />
            <mxPoint x="580" y="677" as="targetPoint" />
          </mxGeometry>
        </mxCell>
        <mxCell id="w9JJ6rMWMCZdvsnwuQ7H-154" value="" style="endArrow=none;html=1;rounded=0;strokeWidth=4;fillColor=#b0e3e6;strokeColor=#0e8088;fontStyle=1;exitX=0.875;exitY=-0.089;exitDx=0;exitDy=0;exitPerimeter=0;" edge="1" parent="1">
          <mxGeometry width="50" height="50" relative="1" as="geometry">
            <mxPoint x="914.85" y="755.0160000000001" as="sourcePoint" />
            <mxPoint x="1438.35" y="678" as="targetPoint" />
          </mxGeometry>
        </mxCell>
        <mxCell id="w9JJ6rMWMCZdvsnwuQ7H-155" value="" style="endArrow=none;html=1;rounded=0;strokeWidth=4;fillColor=#b0e3e6;strokeColor=#0e8088;fontStyle=1;exitX=0.875;exitY=-0.089;exitDx=0;exitDy=0;exitPerimeter=0;" edge="1" parent="1">
          <mxGeometry width="50" height="50" relative="1" as="geometry">
            <mxPoint x="999.7" y="760" as="sourcePoint" />
            <mxPoint x="1523.2" y="683" as="targetPoint" />
          </mxGeometry>
        </mxCell>
        <mxCell id="w9JJ6rMWMCZdvsnwuQ7H-163" value="Physical Switch" style="text;html=1;strokeColor=none;fillColor=none;align=center;verticalAlign=middle;whiteSpace=wrap;rounded=0;fontSize=16;fontStyle=1" vertex="1" parent="1">
          <mxGeometry x="687" y="783" width="96.5" height="30" as="geometry" />
        </mxCell>
        <mxCell id="w9JJ6rMWMCZdvsnwuQ7H-164" value="TRUNK 802.1 Q" style="text;html=1;strokeColor=none;fillColor=none;align=center;verticalAlign=middle;whiteSpace=wrap;rounded=0;fontSize=16;fontStyle=1;fontColor=#FF7B08;" vertex="1" parent="1">
          <mxGeometry x="1216.9" y="639" width="123" height="30" as="geometry" />
        </mxCell>
        <mxCell id="w9JJ6rMWMCZdvsnwuQ7H-165" value="ROUTER L3" style="text;html=1;strokeColor=none;fillColor=none;align=center;verticalAlign=middle;whiteSpace=wrap;rounded=0;fontSize=16;fontStyle=1" vertex="1" parent="1">
          <mxGeometry x="679.6" y="945" width="96.5" height="30" as="geometry" />
        </mxCell>
      </root>
    </mxGraphModel>
  </diagram>
</mxfile>
